<?xml version="1.0" encoding="UTF-8" standalone="no"?><!DOCTYPE svg PUBLIC "-//W3C//DTD SVG 1.1//EN" "http://www.w3.org/Graphics/SVG/1.1/DTD/svg11.dtd"><svg width="100%" height="100%" viewBox="0 0 1022 1033" version="1.1" xmlns="http://www.w3.org/2000/svg" xmlns:xlink="http://www.w3.org/1999/xlink" xml:space="preserve" xmlns:serif="http://www.serif.com/" style="fill-rule:evenodd;clip-rule:evenodd;stroke-linejoin:round;stroke-miterlimit:2;"><path d="M1007.467,775.373l-175.299,-76.228l-52.243,22.718l173.133,75.286l-442.203,192.29l-442.203,-192.29l173.133,-75.286l-52.243,-22.718l-175.299,76.228c-5.473,2.397 -9.842,6.766 -12.239,12.239c-5.268,12.027 0.212,26.046 12.239,31.313l487.104,211.815c3.032,1.323 6.27,1.985 9.509,1.985c3.239,0 6.477,-0.662 9.509,-1.985l487.103,-211.815c5.472,-2.397 9.842,-6.766 12.239,-12.239c5.267,-12.027 -0.212,-26.046 -12.239,-31.313Z" style="fill:#5b9bff;fill-rule:nonzero;"/><path d="M1007.467,504.108l-180.09,-78.312l-78.365,34.077l151.803,66.01l-389.96,169.572l-389.96,-169.572l151.803,-66.011l-78.365,-34.077l-180.09,78.312c-5.473,2.397 -9.842,6.766 -12.239,12.239c-5.268,12.027 0.212,26.046 12.239,31.313l487.104,211.815c3.032,1.323 6.27,1.985 9.509,1.985c3.239,0 6.477,-0.662 9.509,-1.985l487.103,-211.815c5.472,-2.397 9.842,-6.766 12.239,-12.239c5.267,-12.027 -0.212,-26.046 -12.239,-31.313Z" style="fill:#438dff;fill-rule:nonzero;"/><path d="M510.855,88.721l337.717,146.855l-337.717,146.855l-337.717,-146.855l337.717,-146.855m0,-88.721c-3.239,0 -6.477,0.662 -9.509,1.985l-487.104,211.815c-5.472,2.397 -9.842,6.766 -12.239,12.239c-5.268,12.026 0.212,26.045 12.239,31.313l487.104,211.815c3.032,1.323 6.27,1.985 9.509,1.985c3.239,0 6.477,-0.662 9.509,-1.985l487.104,-211.815c5.473,-2.397 9.842,-6.766 12.239,-12.239c5.267,-12.026 -0.212,-26.045 -12.239,-31.313l-487.104,-211.815c-3.032,-1.323 -6.27,-1.985 -9.509,-1.985l0,0Z" style="fill:#1470ff;fill-rule:nonzero;"/></svg>